<?xml version="1.0" encoding="utf-8"?>
<!-- Generator: Adobe Illustrator 24.0.1, SVG Export Plug-In . SVG Version: 6.00 Build 0)  -->
<svg version="1.1" id="Layer_1" xmlns="http://www.w3.org/2000/svg" xmlns:xlink="http://www.w3.org/1999/xlink" x="0px" y="0px"
	 viewBox="0 0 860.67 115.26" style="enable-background:new 0 0 860.67 115.26;" xml:space="preserve">
<style type="text/css">
	.st0{fill:#1C72A8;}
	.st1{fill:#AEAFB2;}
	.st2{fill:#7F8084;}
</style>
<g>
	<g>
		<g>
			<g>
				<path class="st0" d="M351.34,10.02c-5.1-10.16-21.49-10.02-35.23-10.02h-56.38c-3.07,0-6.25-0.02-9.54,0.06l0.03-0.06H62.27
					L0,115.21h34.92l21.43-39.64h79.43l14.31-26.48H70.65L81.95,28.2h113.31c-4.39,6.23-7.48,12.24-9.68,16.31l-12.84,23.76
					c-4.18,7.73-14.55,27.19-10.36,36.64c4.39,9.87,25.2,10.3,35.93,10.3h54.67c8.01,0,32-0.43,47.07-10.3
					c14.41-9.45,22.48-26.76,27.82-36.64l12.84-23.76C345.2,36.21,355.86,18.61,351.34,10.02z M302.93,49.81l-8.43,15.6
					c-3.48,6.44-7.22,12.31-9.3,14.02c-9.73,8.73-19.7,7.58-25.42,7.58h-39.21c-5.72,0-16.93,1.14-17.22-7.58
					c-0.22-1.72,2.31-7.44,5.86-14.02l8.43-15.6c3.87-7.16,7.22-12.31,9.3-14.02c9.65-8.59,19.7-7.58,25.42-7.58h39.21
					c5.72,0,16.86-1,17.22,7.58C309.01,37.5,306.33,43.51,302.93,49.81z"/>
				<path class="st0" d="M512.05,10.02c2.14,9.02-11.51,35.06-18.88,43.93c-8.82,11.02-16.77,13.02-26.63,16.17
					c3.45,1.29,5.71,2.15,7.37,3.58c7.18,6.58-3.16,23.33-8.27,32.77l-4.72,8.73h-34.92c7.12-13.17,13.09-22.9,10.95-26.62
					c-1.71-3.72-11.96-3.29-15.97-3.29h-48.23l-16.17,29.91h-34.92l62.27-115.2h99.89C496.29,0.01,509.62-0.57,512.05,10.02z
					 M438.86,55.67c4.87,0,15.51,0.43,22.55-5.44c3.48-3.01,8.74-12.74,8.82-16.31c0.12-6.58-11.36-5.72-16.23-5.72h-50.37
					l-14.85,27.48H438.86z"/>
				<path class="st0" d="M633.43,39.65c5.58-12.45-0.39-11.45-11.41-11.45h-30.2c-14.02,0-22.79-1-32.3,7.87
					c-5.43,5.01-24.37,39.78-23.7,44.65c1,7.16,10.33,6.3,15.92,6.3h38.5c3.86,0,12.42,0.86,19.02-5.01c2.82-2.58,3.86-5.3,6.03-9.3
					H572.2l12.61-23.33h78.28L649.7,74.14c-3.56,6.58-11.84,23.76-25.22,32.63c-11.98,7.87-33.97,8.3-38.91,8.44h-60.54
					c-8.44,0-25.88,1.29-30.45-9.59c-4.24-10.16,3.73-24.9,10.15-36.78l12.84-23.76c5.34-9.87,12.6-24.9,28.03-34.92
					c15.5-9.87,35.39-9.87,45.56-10.16h57.53c8.44,0,27.52,0.72,28.63,14.02c0.37,6.73-4.58,15.89-9.84,25.62H633.43z"/>
			</g>
		</g>
		<polygon class="st1" points="824.74,2.17 791.69,24.99 820.04,24.98 769.31,115.21 799.11,115.21 840.19,39.77 840.47,39.25 
			860.67,2.17 		"/>
	</g>
	<g>
		<g>
			<g>
				<polygon class="st2" points="646.01,115.21 748.14,115.21 762.5,89.74 660.05,89.74 				"/>
				<polygon class="st2" points="706.59,2.18 694.08,24.98 770.92,24.98 803.86,2.18 				"/>
				<polygon class="st2" points="668.79,70.72 769.78,70.72 784.15,45.26 682.83,45.26 				"/>
			</g>
		</g>
	</g>
</g>
</svg>
